<svg width="1200" height="630" fill="none" xmlns="www.w3.org/2000/svg"><g clip-path="url(#clip0_1161_3876)"><path fill="#74C0FC" d="M0 0h1200v630H0z"/><path d="M140.25 114.25l-19.688-3-8.812-17.813A4.373 4.373 0 0 0 107.812 91c-1.5 0-3 .938-3.75 2.438L95.25 111.25l-19.688 3c-3.562.375-4.874 4.875-2.25 7.312l14.063 13.876-3.188 19.687c-.187 1.125.188 2.437.938 3.375.75.938 1.875 1.5 3.188 1.5.75 0 1.312 0 2.062-.375L108 150.25l17.438 9.375c.562.187 1.312.375 2.062.375 1.312 0 2.438-.562 3.188-1.5.937-.938 1.312-2.25 1.124-3.375l-3.374-19.687 14.25-13.876c2.437-2.624 1.124-6.937-2.438-7.312zm-18.375 19.125l3.375 19.313-17.438-9.188-17.25 9.188 3.188-19.313-13.875-13.687 19.313-2.813L108 99.25l8.625 17.625 19.313 2.813-14.063 13.687zM120 85h12v12c0 1.688 1.312 3 3 3 1.5 0 3-1.313 3-3V85h12c1.5 0 3-1.313 3-3 0-1.5-1.5-2.813-3-2.813L138 79V67c0-1.5-1.5-3-3-3-1.688 0-3 1.5-3 3v12l-12 .188C118.312 79 117 80.5 117 82c0 1.688 1.312 3 3 3zm45 18h-6v-6c0-1.5-1.5-2.813-3-2.813S153 95.5 153 97v6h-6c-1.688 0-3 1.5-3 3.188 0 1.5 1.312 2.812 3 2.812h6v6c0 1.688 1.312 3.188 3 3.188 1.5 0 3-1.5 3-3.188v-6h6c1.5 0 3-1.312 3-2.812 0-1.688-1.5-3.188-3-3.188zM352.688 64.938C356.438 64.188 360 67 360 70.75V95.5h-.188c0 .375.188.563.188.75 0 5.438-5.438 9.75-12 9.75-6.75 0-12-4.312-12-9.75 0-5.25 5.25-9.75 12-9.75 2.062 0 4.125.563 6 1.313V70.75l-24 4.875V101.5h-.188c0 .375.188.562.188.75 0 5.438-5.438 9.75-12 9.75-6.75 0-12-4.312-12-9.75 0-5.25 5.25-9.75 12-9.75 2.062 0 4.125.563 6 1.313V75.624c0-3 1.875-5.438 4.688-6l24-4.688zm0 29.25A7.475 7.475 0 0 0 348 92.5c-2.062 0-3.75.75-4.875 1.688-.937.75-1.125 1.5-1.125 2.062 0 .75.188 1.5 1.125 2.25 1.125.938 2.813 1.5 4.875 1.5 1.875 0 3.562-.563 4.688-1.5.937-.75 1.312-1.5 1.312-2.25 0-.563-.375-1.313-1.312-2.063zm-30 6A7.473 7.473 0 0 0 318 98.5c-2.062 0-3.75.75-4.875 1.688-.937.75-1.125 1.5-1.125 2.062 0 .75.188 1.5 1.125 2.25 1.125.938 2.813 1.5 4.875 1.5 1.875 0 3.562-.562 4.688-1.5.937-.75 1.312-1.5 1.312-2.25 0-.562-.375-1.312-1.312-2.062zm-47.626-34.876c4.313-.75 8.626.563 11.626 3.563L288 70l.938-.938c3.187-3.187 7.5-4.5 11.812-3.75 6.375.938 11.25 6.563 11.25 13.126V79c0 3.938-1.688 7.5-4.5 10.313l-17.062 15.749c-.563.563-1.5.938-2.438.938-1.125 0-2.062-.375-2.625-.938l-17.063-15.75C265.5 86.5 264 82.939 264 79v-.563c0-6.562 4.688-12.187 11.062-13.124zm7.5 7.876c-1.687-1.688-4.124-2.438-6.562-2.063-3.562.563-6 3.75-6 7.313V79c0 2.25.75 4.313 2.438 5.813L288 99.25l15.375-14.438C305.062 83.313 306 81.25 306 79v-.563c0-3.562-2.625-6.75-6.188-7.312-2.437-.375-4.874.375-6.562 2.063L288 78.624l-5.438-5.438zM303 137.5c0 6.75-5.438 12-12 12-6.75 0-12-5.25-12-12 0-6.562 5.25-12 12-12 6.562 0 12 5.438 12 12zm-12 6c3.188 0 6-2.625 6-6 0-3.188-2.812-6-6-6-3.375 0-6 2.812-6 6 0 3.375 2.625 6 6 6zm12-28.125l1.5 2.625h4.5c4.875 0 9 4.125 9 9v24c0 5.062-4.125 9-9 9h-36c-5.062 0-9-3.938-9-9v-24c0-4.875 3.938-9 9-9h4.312l1.5-2.625a5.77 5.77 0 0 1 5.25-3.375h13.688a5.77 5.77 0 0 1 5.25 3.375zM273 124c-1.688 0-3 1.5-3 3v24c0 1.688 1.312 3 3 3h36c1.5 0 3-1.312 3-3v-24c0-1.5-1.5-3-3-3h-8.25l-3-6h-13.688l-3 6H273zm64.125 9H354c1.125 0 2.25.75 2.625 1.875.563 1.125.187 2.437-.563 3.375l-21 21c-1.124 1.125-3.187 1.125-4.312 0-1.125-1.125-1.125-3.188 0-4.312L346.688 139H330c-1.312 0-2.438-.562-2.812-1.688-.563-1.124-.188-2.437.562-3.374l21-21c1.125-1.126 3.188-1.126 4.312 0 1.126 1.124 1.126 3.187 0 4.312L337.125 133zM515.062 96.625l12 13.5c1.126 1.125 1.126 2.813 0 3.937l-12 13.5c-.937 1.313-3 1.313-4.124.188-1.313-.938-1.313-3-.188-4.125L520.875 112l-10.125-11.438c-1.125-1.312-1.125-3.187.188-4.312 1.124-.938 3.187-.938 4.124.375zM486.938 112l10.124 11.625c1.126 1.125 1.126 3.187-.187 4.125-1.125 1.125-3.187 1.125-4.125-.188l-12-13.5c-1.125-1.124-1.125-2.812 0-3.937l12-13.5c.938-1.313 3-1.313 4.125-.375 1.313 1.125 1.313 3 .187 4.312L486.938 112zM540 70c6.562 0 12 5.438 12 12v60c0 6.75-5.438 12-12 12h-72c-6.75 0-12-5.25-12-12V82c0-6.563 5.25-12 12-12h72zm0 6h-72c-3.375 0-6 2.813-6 6v60c0 3.375 2.625 6 6 6h72c3.188 0 6-2.625 6-6V82c0-3.188-2.812-6-6-6zM660 121V76c0-6.563 5.25-12 12-12h48c6.562 0 12 5.438 12 12v45c0 8.438-6.75 15-15 15h-9v12c0 6.75-5.438 12-12 12-6.75 0-12-5.25-12-12v-12h-9c-8.438 0-15-6.562-15-15zm57 9c4.875 0 9-3.938 9-9v-3h-60v3c0 5.062 3.938 9 9 9h15v18c0 3.375 2.625 6 6 6 3.188 0 6-2.625 6-6v-18h15zm9-54c0-3.188-2.812-6-6-6h-18v15c0 1.688-1.5 3-3 3-1.688 0-3-1.313-3-3V70h-12v21c0 1.688-1.5 3-3 3-1.688 0-3-1.313-3-3V70h-6c-3.375 0-6 2.813-6 6v36h60V76zM885 79c-9.938 0-18 8.25-18 18 0 1.688 1.312 3 3 3 1.5 0 3-1.313 3-3 0-6.563 5.25-12 12-12 1.5 0 3-1.313 3-3 0-1.5-1.5-3-3-3zm39 20.25C924 79.937 907.688 64 888 64c-19.875 0-36 15.938-36 35.25 0 15.188 18.375 35.438 29.438 42.938l-8.063 13.312a2.875 2.875 0 0 0 0 3c.375.938 1.5 1.5 2.625 1.5h24c.938 0 2.062-.562 2.438-1.5a2.88 2.88 0 0 0 0-3l-8.063-13.312c11.063-7.5 29.625-27.75 29.625-42.938zM894.562 154H881.25l5.438-9h2.624l5.25 9zM888 139c-4.312-.562-30-23.812-30-39.75C858 83.125 871.312 70 888 70c16.5 0 30 13.125 30 29.25 0 15.938-25.875 39.188-30 39.75zM1080 78.625l44.81-5.25c2.63-.375 5.25 1.125 6.19 3.563L1137 91c1.88 4.313-.56 9.188-5.25 10.125l-29.81 6.937c-3.56.938-7.13-.562-9.38-3.562L1080 86.687l-12.75 17.813c-2.25 3-5.81 4.5-9.37 3.562l-29.82-6.937c-4.68-.937-7.12-5.813-5.25-10.125l6-14.063c.94-2.437 3.57-3.937 6.19-3.562l45 5.25zm-51.75 14.625c-.37.938.19 1.875 1.13 2.063l29.81 6.937c1.12.375 2.43-.188 3.19-1.125l12.18-17.063-40.31-4.687-6 13.875zm69.19 7.875c.75.937 2.06 1.5 3.18 1.125l29.82-6.938c.94-.187 1.5-1.124 1.12-2.062l-6-13.875-40.31 4.688 12.19 17.062zm24.56 7.313l6-1.688v28.312c0 4.126-2.81 7.688-6.94 8.813l-39 9.75c-1.31.187-2.81.187-4.31 0l-39-9.75c-4.13-1.125-6.75-4.687-6.75-8.813V106.75l6 1.688v26.624c0 1.313.75 2.626 2.25 2.813l36.75 9.187V103c0-1.5 1.31-3 3-3 1.5 0 3 1.5 3 3v44.062l36.56-9.187c1.5-.187 2.44-1.5 2.44-2.813v-26.624zM93 279.938l8.625-6.188c1.313-1.125 3.187-.75 4.125.562 1.125 1.313.75 3.188-.562 4.126l-9 6.562H102c3.938 0 7.312 2.062 9.562 4.875-1.687 1.5-3 3.187-4.124 5.063-.75-2.25-3-3.938-5.438-3.938H72c-3.375 0-6 2.812-6 6v54c0 3.375 2.625 6 6 6h24c0 2.25.563 4.312 1.5 6H72c-6.75 0-12-5.25-12-12v-54c0-6.562 5.25-12 12-12h5.625l-9-6.562c-1.313-.938-1.688-2.813-.563-4.126.938-1.312 2.813-1.687 4.126-.562l9 6.375-3.188-9c-.375-1.687.375-3.375 1.875-3.937 1.688-.376 3.375.374 3.938 1.874l3.187 9.75 3.375-9.75c.563-1.5 2.438-2.437 3.938-1.874 1.5.562 2.437 2.437 1.874 3.937L93 279.938zM123 291c3.75 0 7.125 1.875 9.562 4.875L141 306.75l8.25-10.875c2.438-3 5.812-4.875 9.562-4.875 6.75 0 12.188 5.438 12.188 12 0 2.25-.75 4.312-1.688 6H171c4.875 0 9 4.125 9 9v36c0 5.062-4.125 9-9 9h-60c-5.062 0-9-3.938-9-9v-36c0-4.875 3.938-9 9-9h1.5c-.938-1.688-1.5-3.75-1.5-6 0-6.562 5.25-12 12-12zm4.688 8.438c-1.126-1.5-2.813-2.438-4.688-2.438-3.375 0-6 2.812-6 6 0 3.375 2.625 6 6 6h12.188l-7.5-9.562zM108 333h30v-18h-27c-1.688 0-3 1.5-3 3v15zm3 24h27v-18h-30v15c0 1.688 1.312 3 3 3zm63-3v-15h-30v18h27c1.5 0 3-1.312 3-3zm-3-39h-27v18h30v-15c0-1.5-1.5-3-3-3zm-12-6c3.188 0 6-2.625 6-6 0-3.188-2.812-6-6.188-6-1.874 0-3.562.938-4.687 2.438l-7.5 9.562H159zM351 357h-36v-66.375c5.062-1.313 8.812-6 8.812-11.437h27c1.5 0 3-1.5 3-3 0-1.688-1.5-3-3-3h-28.687c-.187-.188-.937-2.25-3.75-4.126C316.688 267.75 314.438 267 312 267c-2.625 0-4.875.75-6.75 2.062-2.812 1.876-3.562 3.938-3.562 3.938h-28.876c-1.687 0-3 1.5-3 3 0 1.688 1.313 3 3 3h27c0 5.625 3.75 10.312 8.813 11.625V357h-35.813c-1.687 0-3 1.5-3 3 0 1.688 1.313 3 3 3h78c1.5 0 3-1.312 3-3 .188-1.5-1.312-3-2.812-3zm-45.188-78c0-3.188 2.626-6 6-6 3.188 0 6 2.812 6 6 0 3.375-2.624 6-5.812 6-3.375 0-6.188-2.625-6.188-6zm65.063 40.5l-20.437-33c-.563-.938-1.5-1.5-2.438-1.5-1.125 0-2.062.562-2.625 1.5l-20.437 32.812c-.75.938-1.126 2.25-.938 3.563.938 12.563 11.25 22.125 24 22.125 12.562 0 22.875-9.562 23.812-21.938.188-1.312-.187-2.624-.937-3.562zM348 339c-7.875 0-14.625-5.062-17.062-12h33.937c-2.437 7.125-9.187 12-16.875 12zm-17.062-18L348 293.812 365.062 321h-34.124zm-31.126 2.062c.188-1.312-.187-2.624-.937-3.562l-20.437-33c-.563-.938-1.5-1.5-2.626-1.5-.937 0-1.874.562-2.437 1.5l-20.437 33c-.75.938-1.126 2.25-.938 3.562.938 12.376 11.25 21.938 23.812 21.938 12.75 0 23.063-9.562 24-21.938zm-24-29.25L292.875 321h-33.937l16.874-27.188zM258.938 327h33.937c-2.625 7.125-9.187 12-17.063 12-7.687 0-14.437-5.062-16.874-12zM883.312 268.5c3-1.125 6.376-1.125 9.376 0l33 14.062c4.124 1.876 7.312 5.813 7.312 10.688-.188 18.75-7.875 52.688-40.125 68.25-3.187 1.5-6.75 1.5-9.937 0C850.688 345.938 843 312 843 293.25c-.188-4.875 3-8.812 7.125-10.688l33.187-14.062zm6.938 5.625a5.165 5.165 0 0 0-4.688 0l-33.187 14.063c-2.063.75-3.563 2.812-3.375 5.062 0 17.625 7.312 48.75 36.562 62.812 1.5.75 3.188.75 4.688 0C919.5 342 926.812 310.875 927 293.25c0-2.25-1.5-4.312-3.562-5.062l-33.188-14.063zM1032 315c0-26.438 21.38-48 48-48 26.44 0 48 21.562 48 48 0 26.625-21.56 48-48 48-26.62 0-48-21.375-48-48zm48 42c20.06 0 36.94-14.062 41.06-33l-8.62-2.25c-3-.75-5.44-3-6.38-5.812l-3.18-9.563c-1.5-4.5.74-9.375 5.24-11.25l7.13-2.813c-7.31-11.437-20.06-18.937-34.69-19.124l1.32 2.25c1.87 3.374 1.5 7.5-.94 10.312l-3.75 4.312c-.57.563-.57 1.5 0 2.063l3.37 3.937c1.88 2.25 2.06 5.438.38 7.876-1.69 2.437-4.69 3.562-7.5 2.624l-4.69-1.5c-.37-.187-.94-.187-1.31 0-.75.563-1.13 1.5-.75 2.438l.19.188c.18.374.56.75.93.937l8.63 4.313c.75.374 1.68.562 2.62.562h9.19c3.19 0 6.19 1.312 8.44 3.562l.75.75c2.25 2.25 3.56 5.25 3.56 8.438v1.688c0 4.312-2.44 8.25-6.19 10.312l-2.06 1.312c-1.69.938-3 2.626-3.56 4.5l-.75 3.376c-.94 3.937-4.5 6.562-8.63 6.562a8.804 8.804 0 0 1-8.81-8.812v-4.313c0-.937-.56-1.687-1.5-2.063-2.81-1.5-4.5-4.312-4.5-7.5V328.5c0-3.188-2.06-5.812-5.06-6.75l-11.82-3.75c-4.12-1.312-7.5-4.125-9.18-8.25l-.56-1.125c-.38 2.063-.38 4.313-.38 6.375 0 23.25 18.75 42 42 42zm-39-57.562l3.38 7.874c1.12 2.438 3.18 4.313 5.62 5.063l11.81 3.75c5.44 1.687 9.19 6.563 9.19 12.375v2.812c0 .75.38 1.688 1.31 2.063 2.81 1.5 4.69 4.313 4.69 7.5v4.313c0 1.687 1.12 2.812 2.81 2.812 1.31 0 2.44-.75 2.81-2.062l.76-3.376c.93-3.374 3.18-6.374 6.37-8.25l2.06-1.312c1.88-.938 3.19-3 3.19-5.062v-1.688c0-1.5-.75-3-1.88-4.125l-.74-.75c-1.13-1.125-2.63-1.875-4.13-1.875h-9.19c-1.87 0-3.75-.375-5.44-1.125l-8.62-4.313a8.17 8.17 0 0 1-3.56-3.562v-.375c-2.06-3.75-.38-8.437 3.37-10.313 1.88-.937 3.94-1.124 6-.374l4.5 1.5c.19 0 .57 0 .57-.376.18-.187.18-.374 0-.562l-3.38-4.125c-2.25-2.813-2.25-6.937.19-9.563l3.75-4.5c.75-.937.94-2.25.18-3.374l-2.62-4.876c-15.19 2.063-27.56 12.188-33 25.876zm77.06-1.876l-7.87 3.188c-1.31.562-2.07 2.25-1.69 3.75l3.19 9.562c.37.938 1.12 1.688 2.06 1.876l8.06 2.062c0-.938.19-1.875.19-3 0-6.188-1.5-12-3.94-17.438zM116.062 474.125l3.938 3.75 3.75-3.75c2.438-2.625 6-4.125 9.562-4.125 7.5 0 13.688 6.188 13.688 13.688v.937c0 3.937-1.688 7.875-4.688 10.5l-18.374 17.25c-2.25 2.063-5.813 2.063-8.063 0L97.5 495.125c-3-2.625-4.5-6.563-4.5-10.5v-.937c0-7.5 6-13.688 13.5-13.688 3.562 0 7.125 1.5 9.562 4.125zM99 484.625c0 2.25.938 4.5 2.625 6.187L120 508.062l18.188-17.25c1.687-1.687 2.812-3.937 2.812-6.187v-.937c0-4.126-3.562-7.688-7.688-7.688-2.062 0-3.937.938-5.437 2.25l-5.813 6c-1.124 1.125-3.187 1.125-4.312 0l-5.812-6c-1.5-1.312-3.376-2.25-5.438-2.25-4.125 0-7.5 3.562-7.5 7.688v.937zM72 482c6.563 0 12 5.438 12 12v23.438c0 .75 0 1.687.188 2.437.374-.563.75-1.125 1.312-1.687a10.41 10.41 0 0 1 14.812 0l17.063 17.062c.937 1.125 1.875 2.062 2.625 3.188.562-1.126 1.5-2.063 2.438-3.188l17.062-17.062c4.125-4.126 10.688-4.126 14.812 0 .563.562.938 1.124 1.313 1.687.187-.75.375-1.687.375-2.437V494c0-6.562 5.25-12 12-12 6.562 0 12 5.438 12 12v40.688c0 5.437-2.25 10.874-6.188 14.812l-15.75 15.75c-1.124 1.125-3.187 1.125-4.312 0-1.125-1.125-1.125-3.188 0-4.312l15.75-15.75c2.812-2.813 4.5-6.563 4.5-10.5V494c0-3.188-2.812-6-6-6-3.375 0-6 2.812-6 6v23.438c0 5.062-2.062 9.937-5.625 13.5l-13.313 13.312c-1.124 1.125-3.187 1.125-4.312 0-1.125-1.125-1.125-3.188 0-4.312l11.25-11.25c1.688-1.688 1.688-4.5 0-6.188-1.688-1.688-4.5-1.688-6.188 0l-17.062 17.062c-2.438 2.438-3.75 5.626-3.75 9V563c0 1.688-1.5 3-3 3-1.688 0-3-1.312-3-3v-14.438c0-3.374-1.5-6.562-3.938-9L96 522.5c-1.688-1.688-4.5-1.688-6.188 0-1.687 1.688-1.687 4.5 0 6.188l11.25 11.25c1.126 1.124 1.126 3.187 0 4.312-1.124 1.125-3.187 1.125-4.312 0l-13.313-13.312C79.876 527.375 78 522.5 78 517.438V494c0-3.188-2.813-6-6-6-3.375 0-6 2.812-6 6v40.688c0 3.937 1.5 7.687 4.313 10.5l15.75 15.75c1.124 1.124 1.124 3.187 0 4.312-1.126 1.125-3.188 1.125-4.313 0L66 549.5c-3.938-3.938-6-9.375-6-14.812V494c0-6.562 5.25-12 12-12zM292.125 507.875C291 506.75 289.5 506 287.812 506c-.374 0-.75.188-1.124.188-2.063.562-3.75 1.874-4.5 3.75l-17.813 48a6.183 6.183 0 0 0 1.5 6.374c.937 1.126 2.437 1.688 4.125 1.688.562 0 1.312 0 2.062-.375l47.813-18c1.875-.563 3.375-2.25 3.75-4.313.375-1.874-.187-3.937-1.687-5.437l-29.813-30zM270 560l5.25-14.438 9 9L270 560zm20.438-7.688l-12.938-12.75 4.312-11.25 19.876 19.876-11.25 4.124zm17.437-6.562l-23.813-23.625 3.75-9.937 30 29.812-9.937 3.75zM357 518h-2.062c-9.563 0-18.376 4.875-24.563 13.312-.937 1.313-.563 3.188.75 4.313.563.187 1.125.375 1.875.375s1.688-.375 2.438-1.125c4.874-6.937 11.812-10.875 19.5-10.875H357c1.5 0 3-1.312 3-3 0-1.5-1.5-3-3-3zm-60-18c.562 0 1.125-.188 1.688-.562 8.437-6 13.312-14.813 13.312-24.376V473c0-1.5-1.5-3-3-3s-3 1.5-3 3v2.062c0 7.688-3.75 14.626-10.688 19.5-1.5 1.126-1.874 3-.937 4.313.75.75 1.687 1.125 2.625 1.125zm-21-19.5c2.438 0 4.5-1.875 4.5-4.5 0-2.438-2.062-4.5-4.5-4.5-2.625 0-4.5 2.062-4.5 4.5 0 2.625 1.875 4.5 4.5 4.5zm78 69c-2.625 0-4.5 2.062-4.5 4.5 0 2.625 1.875 4.5 4.5 4.5 2.438 0 4.5-1.875 4.5-4.5 0-2.438-2.062-4.5-4.5-4.5zm0-54c-2.625 0-4.5 2.062-4.5 4.5 0 2.625 1.875 4.5 4.5 4.5 2.438 0 4.5-1.875 4.5-4.5 0-2.438-2.062-4.5-4.5-4.5zm-18.375 7.5c3.75-4.5 3.563-8.625 3.187-12-.187-3.188-.187-5.25 1.876-7.875 2.25-2.437 4.312-2.813 7.312-3 3.375-.375 7.5-.75 11.25-5.063.938-1.312.938-3.187-.375-4.312-1.313-.938-3.187-.938-4.313.375-2.062 2.625-4.124 2.813-7.124 3-3.376.375-7.5.75-11.25 5.063-3.75 4.5-3.563 8.624-3.188 12.187.188 3 .188 5.063-1.875 7.687-2.25 2.626-4.313 2.813-7.313 3-3.374.376-7.5.75-11.25 5.063-.937 1.313-.937 3.187.376 4.313.562.374 1.312.562 2.062.562.75 0 1.688-.188 2.25-.938 2.062-2.624 4.125-2.812 7.125-3 3.375-.374 7.5-.75 11.25-5.062zM555 495.5l-4.5-4.5c-3.938-3.938-9.938-3.938-13.875 0l-29.813 29.625C501.188 526.25 498 534.125 498 542c-.75 0-1.5-.375-1.875-1.125-2.25-4.5-8.625-5.625-12.375-2.625l-2.625-7.875c-.563-1.875-2.25-3-4.125-3-2.062 0-3.75 1.125-4.312 3l-3.376 10.313c-.374.75-1.124 1.312-2.062 1.312H465c-1.688 0-3 1.5-3 3 0 1.688 1.312 3 3 3h2.25c3.562 0 6.562-2.062 7.688-5.438l2.062-6 3 9.376c.938 2.624 4.5 2.812 5.625.562l1.5-3c.75-1.5 2.813-1.5 3.75.188 1.313 2.624 3.937 4.312 7.125 4.312h6c12.375 0 21-8.625 21.375-8.812L555 509.375c1.875-1.875 3-4.313 3-6.937 0-2.626-1.125-5.063-3-6.938zm-33.938 39.375C516.562 539.562 510.375 542 504 542c0-6.375 2.438-12.562 6.938-17.062l22.5-22.5 9.937 9.937-22.313 22.5zm29.813-29.813L546.938 509 537 499.062l3.938-3.937a3.991 3.991 0 0 1 5.25 0l4.687 4.687a3.991 3.991 0 0 1 0 5.25zM518.25 554c-1.312 0-2.438.75-2.812 2.062-.938 2.25-3 3.938-5.813 3.938h-48c-3.187 0-5.813-2.625-5.813-6v-72c0-3.188 2.626-6 5.813-6h24v21c0 5.062 3.937 9 9 9h12c1.687 0 3-1.312 3-2.812V503c0-1.688-1.313-3-2.813-3h-12c-1.687 0-3-1.312-3-3v-20.438c.75.188 1.5.563 2.25 1.313l16.876 16.875c1.124 1.125 3 1.125 4.124 0 1.126-1.312 1.126-3 0-4.312l-16.874-16.876c-2.25-2.25-5.25-3.562-8.438-3.562h-27.938C455.25 470 450 475.438 450 482v72c0 6.75 5.25 12 11.812 12h47.813c5.437 0 9.937-3.375 11.437-8.062.563-1.876-.937-3.938-2.812-3.938zM696 483.5c2.438 0 4.5 2.062 4.5 4.5 0 2.625-2.062 4.5-4.5 4.5-2.625 0-4.5-1.875-4.5-4.5 0-2.438 1.875-4.5 4.5-4.5zm0 40.5c3.188 0 6.188 1.312 8.25 3.562l20.062-12c1.5-.937 3.376-.374 4.126.938.937 1.5.374 3.375-.938 4.125l-20.062 12c.374 1.125.562 2.25.562 3.375 0 6.75-5.438 12-12.188 12-6.562 0-12-5.25-12-12 0-6.562 5.438-12 12-12H696zm-6 12c0 3.375 2.625 6 6 6 3.188 0 6-2.625 6-6 0-3.188-2.812-6-6-6-3.375 0-6 2.812-6 6zm27-43.5c2.438 0 4.5 2.062 4.5 4.5 0 2.625-2.062 4.5-4.5 4.5-2.625 0-4.5-1.875-4.5-4.5 0-2.438 1.875-4.5 4.5-4.5zm-51 30c-2.625 0-4.5-1.875-4.5-4.5 0-2.438 1.875-4.5 4.5-4.5 2.438 0 4.5 2.062 4.5 4.5 0 2.625-2.062 4.5-4.5 4.5zm9-30c2.438 0 4.5 2.062 4.5 4.5 0 2.625-2.062 4.5-4.5 4.5-2.625 0-4.5-1.875-4.5-4.5 0-2.438 1.875-4.5 4.5-4.5zm21 73.5c-26.625 0-48-21.375-48-48 0-26.438 21.375-48 48-48 26.438 0 48 21.562 48 48 0 26.625-21.562 48-48 48zm42-48c0-23.062-18.938-42-42-42-23.25 0-42 18.938-42 42 0 23.25 18.75 42 42 42 23.062 0 42-18.75 42-42zM879 470c1.5 0 3 1.5 3 3 0 1.688-1.5 3-3 3h-36c-1.688 0-3-1.312-3-3 0-1.5 1.312-3 3-3h36zm0 12c1.5 0 3 1.5 3 3 0 1.688-1.5 3-3 3h-15v21c0 1.688-1.5 3-3 3-1.688 0-3-1.312-3-3v-21h-15c-1.688 0-3-1.312-3-3 0-1.5 1.312-3 3-3h36zm49.688-11.062c3.75-.75 7.312 2.062 7.312 5.812v24.75h-.188c0 .375.188.562.188.75 0 5.438-5.438 9.75-12 9.75-6.75 0-12-4.312-12-9.75 0-5.25 5.25-9.75 12-9.75 2.062 0 4.125.562 6 1.312V476.75l-24 4.875V507.5h-.188c0 .375.188.562.188.75 0 5.438-5.438 9.75-12 9.75-6.75 0-12-4.312-12-9.75 0-5.25 5.25-9.75 12-9.75 2.062 0 4.125.562 6 1.312v-18.187c0-3 1.875-5.437 4.688-6l24-4.687zm0 29.25A7.473 7.473 0 0 0 924 498.5c-2.062 0-3.75.75-4.875 1.688-.937.75-1.125 1.5-1.125 2.062 0 .75.188 1.5 1.125 2.25 1.125.938 2.813 1.5 4.875 1.5 1.875 0 3.562-.562 4.688-1.5.937-.75 1.312-1.5 1.312-2.25 0-.562-.375-1.312-1.312-2.062zm-30 6A7.473 7.473 0 0 0 894 504.5c-2.062 0-3.75.75-4.875 1.688-.937.75-1.125 1.5-1.125 2.062 0 .75.188 1.5 1.125 2.25 1.125.938 2.813 1.5 4.875 1.5 1.875 0 3.562-.562 4.688-1.5.937-.75 1.312-1.5 1.312-2.25 0-.562-.375-1.312-1.312-2.062zM894 533c0-4.875 3.938-9 9-9 4.875 0 9 4.125 9 9 0 5.062-4.125 9-9 9-5.062 0-9-3.938-9-9zm9 3c1.5 0 3-1.312 3-3 0-1.5-1.5-3-3-3-1.688 0-3 1.5-3 3 0 1.688 1.312 3 3 3zm32.062-11.062c1.126 1.124 1.126 3.187 0 4.312l-36 36c-1.124 1.125-3.187 1.125-4.312 0-1.125-1.125-1.125-3.188 0-4.312l36-36c1.125-1.126 3.188-1.126 4.312 0zM936 557c0 5.062-4.125 9-9 9-5.062 0-9-3.938-9-9 0-4.875 3.938-9 9-9 4.875 0 9 4.125 9 9zm-9-3c-1.688 0-3 1.5-3 3 0 1.688 1.312 3 3 3 1.5 0 3-1.312 3-3 0-1.5-1.5-3-3-3zm-71.25-36c6.188 0 11.25 5.062 11.25 11.25 0 3.375-1.688 6.562-4.312 8.625l-3.75 3 9.374 8.437 8.813-6.562c1.313-1.125 3.187-.75 4.125.562 1.125 1.313.75 3.188-.562 4.126l-7.876 6 8.063 7.5c1.313 1.124 1.313 3 .187 4.124-1.124 1.313-3 1.313-4.124.188l-9-8.062-8.813 6.562c-2.063 1.5-4.687 2.25-7.125 2.25-6.75 0-12-5.438-12-12 0-3.75 1.688-7.125 4.5-9.562l5.062-3.938-3-2.812c-2.25-2.063-3.75-5.063-3.75-8.25 0-6.376 5.25-11.438 11.438-11.438h1.5zm5.25 11.25c0-2.812-2.438-5.25-5.25-5.25h-1.5c-3 0-5.25 2.438-5.25 5.438 0 1.5.562 2.812 1.688 3.937l3.75 3.375 4.5-3.562c1.312-.938 2.062-2.438 2.062-3.938zM846 554c0 3.375 2.625 6 6 6 1.125 0 2.438-.375 3.562-1.125l7.876-5.813-9.376-8.437-5.812 4.5c-1.5 1.313-2.25 3-2.25 4.875zM1118.25 472.438l7.31 7.312c3 3 3 7.688 0 10.688l-73.31 73.312c-3 3-7.69 3-10.69 0l-7.31-7.312c-3-3-3-7.688 0-10.688l73.31-73.312c3-3 7.69-3 10.69 0zm-6.37 4.124l-22.69 22.688 9.56 9.562 22.69-22.687c.56-.563.56-1.5 0-2.063l-7.5-7.5a1.47 1.47 0 0 0-2.06 0zm-73.5 75.563l7.5 7.5c.56.563 1.5.563 2.06 0l46.68-46.687-9.56-9.563-46.68 46.687c-.57.563-.57 1.5 0 2.063zM1050 494h9c1.5 0 3 1.5 3 3 0 1.688-1.5 3-3 3h-9v9c0 1.688-1.5 3-3 3-1.69 0-3-1.312-3-3v-9h-9c-1.69 0-3-1.312-3-3 0-1.5 1.31-3 3-3h9v-9c0-1.5 1.31-3 3-3 1.5 0 3 1.5 3 3v9zm63 36c1.5 0 3 1.5 3 3v9h9c1.5 0 3 1.5 3 3 0 1.688-1.5 3-3 3h-9v9c0 1.688-1.5 3-3 3-1.69 0-3-1.312-3-3v-9h-9c-1.69 0-3-1.312-3-3 0-1.5 1.31-3 3-3h9v-9c0-1.5 1.31-3 3-3zm-39.75-53.25h3.75c1.12 0 2.25 1.125 2.25 2.25 0 1.312-1.13 2.438-2.25 2.438h-3.75V485c0 1.312-1.13 2.438-2.25 2.438-1.31 0-2.44-1.126-2.44-2.438v-3.562H1065c-1.31 0-2.44-1.126-2.44-2.438 0-1.125 1.13-2.25 2.44-2.25h3.56V473c0-1.125 1.13-2.25 2.44-2.25 1.12 0 2.25 1.125 2.25 2.25v3.75z" fill="#1C7ED6"/><rect x="442.723" y="199.945" width="313.5" height="230.111" rx="16.889" fill="#193154"/><path fill="#74C0FC" d="M445.89 212.611h281.833V419.5H445.89z"/><path fill-rule="evenodd" clip-rule="evenodd" d="M475.445 233.722v171h241.722v-171H475.445zm-8.444-25.333c-9.328 0-16.889 7.561-16.889 16.889v187.889c0 9.327 7.561 16.888 16.889 16.888h258.61c9.328 0 16.889-7.561 16.889-16.888V225.278c0-9.328-7.561-16.889-16.889-16.889h-258.61z" fill="#193154"/><mask id="a" fill="#fff"><rect x="442.723" y="199.945" width="299.777" height="230.111" rx="16.889"/></mask><rect x="442.723" y="199.945" width="299.777" height="230.111" rx="16.889" stroke="#515F7C" stroke-width="50.667" mask="url(#a)"/><mask id="b" fill="#fff"><path fill-rule="evenodd" clip-rule="evenodd" d="M683.833 252.209c-.983-3.188-3.664-5.82-7-5.82H514.724c-3.337 0-6.017 2.632-7 5.82-1.932 6.261-6.205 11.371-11.703 14.129-2.642 1.326-4.743 3.802-4.743 6.758v87.676c0 2.955 2.101 5.432 4.743 6.757 5.113 2.565 9.167 7.165 11.263 12.832 1.1 2.973 3.698 5.361 6.868 5.361h163.253c3.17 0 5.768-2.388 6.868-5.361 2.096-5.667 6.15-10.267 11.263-12.832 2.641-1.325 4.742-3.802 4.742-6.757v-87.676c0-2.956-2.101-5.433-4.742-6.758-5.498-2.758-9.772-7.868-11.703-14.129z"/></mask><path d="M695.536 266.338l-3.787 7.548 3.787-7.548zm0 101.191l3.786 7.548-3.786-7.548zm-11.263 12.832l7.92 2.93-7.92-2.93zm-176.989 0l7.92-2.929-7.92 2.929zm-11.263-12.832l-3.787 7.548 3.787-7.548zm187.812-115.32l-8.069 2.489 8.069-2.489zm-176.109 0l-8.07-2.489 8.07 2.489zm7 2.624h162.109v-16.888H514.724v16.888zm-14.917 19.053c7.659-3.841 13.411-10.841 15.986-19.188l-16.139-4.978c-1.287 4.174-4.082 7.396-7.42 9.07l7.573 15.096zm-.084 86.886v-87.676h-16.889v87.676h16.889zm15.481 16.66c-2.8-7.57-8.273-13.877-15.397-17.451l-7.573 15.096c3.102 1.556 5.738 4.449 7.13 8.214l15.84-5.859zm162.201-.154H514.152v16.889h163.253v-16.889zm14.788 6.013c1.392-3.765 4.027-6.658 7.129-8.214l-7.573-15.096c-7.124 3.574-12.596 9.881-15.396 17.451l15.84 5.859zm-.359-110.195v87.676h16.888v-87.676h-16.888zm-16.07-18.398c2.575 8.347 8.327 15.346 15.985 19.188l7.573-15.096c-3.337-1.674-6.132-4.896-7.42-9.07l-16.138 4.978zm32.958 18.398c0-7.194-4.974-12.085-9.4-14.306l-7.573 15.096c.124.063.225.131.297.189.072.059.087.086.067.059a1.283 1.283 0 0 1-.159-.32 2.18 2.18 0 0 1-.12-.718h16.888zm-9.4 101.981c4.426-2.22 9.4-7.111 9.4-14.305h-16.888c0-.275.051-.524.12-.718.067-.187.137-.29.159-.32.02-.027.005 0-.067.059a1.638 1.638 0 0 1-.297.188l7.573 15.096zm-21.917 19.09c7.708 0 12.852-5.643 14.788-10.876l-15.84-5.859a.874.874 0 0 1-.097.19c-.032.046-.037.039.011 0 .049-.041.171-.128.376-.206.215-.082.479-.138.762-.138v16.889zm-178.041-10.876c1.936 5.233 7.079 10.876 14.788 10.876v-16.889c.283 0 .547.056.761.138.206.078.328.165.377.206.048.039.043.045.011 0a.874.874 0 0 1-.097-.19l-15.84 5.859zm-16.53-22.519c0 7.194 4.975 12.085 9.4 14.305l7.573-15.096a1.617 1.617 0 0 1-.297-.189c-.072-.059-.087-.086-.067-.058.022.03.093.133.159.32.07.194.121.442.121.718h-16.889zm9.4-101.982c-4.425 2.221-9.4 7.112-9.4 14.306h16.889c0 .275-.051.524-.121.718-.066.187-.137.29-.159.32-.02.027-.005 0 .067-.059a1.73 1.73 0 0 1 .297-.189l-7.573-15.096zm184.599-3.957a2.15 2.15 0 0 1-.793-.151 1.37 1.37 0 0 1-.378-.217c-.043-.037-.031-.037.005.019a.93.93 0 0 1 .097.214l16.138-4.978c-1.719-5.573-6.946-11.775-15.069-11.775v16.888zm-162.109-16.888c-8.123 0-13.35 6.202-15.07 11.775l16.139 4.978a.93.93 0 0 1 .097-.214c.036-.056.047-.056.005-.019a1.37 1.37 0 0 1-.378.217 2.15 2.15 0 0 1-.793.151v-16.888z" fill="#1C7ED6" mask="url(#b)"/><path d="M524.879 294.848c-.833 0-1.531-.27-2.094-.811-.541-.563-.811-1.272-.811-2.128v-16.821c0-.856.281-1.554.844-2.094.563-.563 1.261-.845 2.095-.845h9.863c.765 0 1.396.248 1.891.744.518.495.777 1.114.777 1.857 0 .766-.259 1.397-.777 1.892-.495.495-1.126.743-1.891.743h-6.992v4.256h5.235c.766 0 1.396.248 1.892.743.518.496.777 1.115.777 1.858 0 .766-.259 1.396-.777 1.891-.496.496-1.126.744-1.892.744h-5.235v5.032c0 .856-.282 1.565-.845 2.128-.54.541-1.227.811-2.06.811zm32.663-4.864c.541.766.811 1.509.811 2.229 0 .699-.281 1.318-.844 1.858-.541.518-1.171.777-1.892.777-1.103 0-1.97-.484-2.601-1.452l-3.918-5.878h-3.04v4.391c0 .834-.282 1.532-.845 2.095-.54.563-1.227.844-2.06.844s-1.531-.281-2.094-.844c-.541-.563-.811-1.261-.811-2.095v-16.821c0-.856.282-1.554.845-2.094.563-.563 1.261-.845 2.094-.845h5.81c1.688 0 3.186.327 4.492.98 1.306.631 2.319 1.531 3.04 2.702.721 1.149 1.081 2.466 1.081 3.952 0 1.261-.27 2.41-.811 3.446a7.2 7.2 0 0 1-2.195 2.6l2.938 4.155zm-11.484-7.532h2.972c.811 0 1.453-.237 1.926-.71.495-.495.743-1.137.743-1.925s-.248-1.419-.743-1.892c-.473-.472-1.115-.709-1.926-.709h-2.972v5.236zm19.131 11.991c-.834 0-1.532-.282-2.095-.845-.563-.563-.844-1.261-.844-2.094v-16.416c0-.856.281-1.554.844-2.094.563-.563 1.261-.845 2.095-.845h10.2c.766 0 1.397.248 1.892.744.518.495.777 1.114.777 1.857 0 .766-.259 1.397-.777 1.892-.495.495-1.126.743-1.892.743h-7.329v3.074h4.661c.698 0 1.284.236 1.756.709.473.45.71 1.025.71 1.723 0 .698-.237 1.283-.71 1.756-.472.451-1.058.676-1.756.676h-4.661v3.884h7.735c.765 0 1.396.248 1.891.743.518.496.777 1.115.777 1.858 0 .766-.259 1.396-.777 1.892-.495.495-1.126.743-1.891.743h-10.606zm19.461 0c-.833 0-1.531-.282-2.094-.845s-.844-1.261-.844-2.094v-16.416c0-.856.281-1.554.844-2.094.563-.563 1.261-.845 2.094-.845h10.201c.766 0 1.396.248 1.892.744.518.495.777 1.114.777 1.857 0 .766-.259 1.397-.777 1.892-.496.495-1.126.743-1.892.743h-7.33v3.074h4.662c.698 0 1.283.236 1.756.709.473.45.71 1.025.71 1.723 0 .698-.237 1.283-.71 1.756-.473.451-1.058.676-1.756.676h-4.662v3.884h7.736c.765 0 1.396.248 1.891.743.518.496.777 1.115.777 1.858 0 .766-.259 1.396-.777 1.892-.495.495-1.126.743-1.891.743H584.65z" fill="#fff"/><path d="M524 315h105.556M524 334h105.556M524 351.944h105.556M617.945 278.056H666.5" stroke="#1C7ED6" stroke-width="8.444" stroke-linecap="round"/><path d="M630.611 393.111h26.917V438.5l-26.917 9.5v-54.889z" fill="#E03131"/><path d="M657.528 393.111h26.916V448l-26.916-9.5v-45.389z" fill="#C11C1C"/><path d="M664.85 301.745l2.682-2.804c1.454-1.246 3.115-1.869 4.985-1.454 1.661.623 3.115 1.87 3.531 3.739l1.033 4.004 3.698-2.245c1.734-.831 3.509-1.004 5.214-.115 1.451 1.037 2.537 2.624 2.454 4.546l-.039 4.21 3.841-1.053c1.662-.623 3.532 0 4.778 1.246 1.246 1.247 1.869 3.116 1.246 4.778l-1.131 4.126 4.594-.027c1.775-.172 3.426.918 4.311 2.451.886 1.533 1.004 3.509-.032 4.959l-2.175 3.717 3.78.975c1.87.416 3.116 1.87 3.739 3.531.415 1.662-.208 3.531-1.454 4.778l-2.982 2.917 3.948 2.231c1.706.889 2.537 2.624 2.71 4.398-.029 1.721-1.12 3.372-2.653 4.257l-3.823 2.152 2.8 2.739a5.41 5.41 0 0 1 1.454 4.985c-.623 1.662-1.869 3.116-3.739 3.531l-3.776.974 2.224 3.757a5.43 5.43 0 0 1 .115 5.214c-1.036 1.451-2.624 2.537-4.545 2.454l-4.419-.04 1.054 3.843c.623 1.661 0 3.531-1.246 4.777s-3.116 1.869-4.778 1.246l-3.918-1.074.026 4.538c.173 1.774-.918 3.425-2.451 4.311-1.533.885-3.509 1.003-4.959-.033l-3.896-2.28-1.003 3.885c-.416 1.87-1.87 3.116-3.531 3.739-1.87.416-3.531-.208-4.985-1.454l-2.633-2.752-2.101 3.719c-.889 1.705-2.624 2.536-4.398 2.709-1.922-.083-3.372-1.119-4.459-2.707l-2.098-3.828-2.798 2.859c-1.454 1.246-3.115 1.87-4.985 1.454-1.662-.623-3.115-1.869-3.531-3.739l-.947-3.669-3.577 2.118c-1.734.831-3.508 1.003-5.214.114-1.45-1.036-2.537-2.623-2.454-4.545l.041-4.475-4.05 1.11c-1.662.623-3.532 0-4.778-1.246-1.246-1.246-1.869-3.116-1.246-4.777l1.074-3.918-4.33.025c-1.775.173-3.426-.918-4.311-2.451-.886-1.533-1.004-3.509.032-4.959l2.253-3.85-4.065-1.049c-1.87-.415-3.116-1.869-3.739-3.531a5.41 5.41 0 0 1 1.454-4.985l2.789-2.729-3.548-2.005c-1.706-.889-2.537-2.624-2.71-4.398a5.435 5.435 0 0 1 2.707-4.459l3.795-2.136-3.033-2.967c-1.246-1.247-1.869-3.116-1.454-4.778.623-1.661 1.869-3.115 3.739-3.531l3.999-1.032-2.186-3.693c-.885-1.533-1.004-3.509-.169-5.013 1.037-1.45 2.624-2.537 4.545-2.454l4.268.039-1.11-4.048c-.623-1.662 0-3.531 1.246-4.778 1.246-1.246 3.116-1.869 4.778-1.246l4.125 1.131-.026-4.387c-.173-1.774.918-3.426 2.451-4.311 1.533-.885 3.509-1.004 4.959.033l3.67 2.147 1.022-3.96c.416-1.869 1.869-3.116 3.531-3.739 1.87-.415 3.531.208 4.985 1.454l2.86 2.924 2.081-3.683c.889-1.706 2.624-2.537 4.398-2.71 1.922.083 3.372 1.12 4.459 2.707l2.007 3.566z" fill="#FAB005"/><path d="M661.647 301.445l2.682-2.804c1.454-1.246 3.115-1.869 4.985-1.454 1.661.623 3.115 1.87 3.531 3.739l1.033 4.005 3.698-2.246c1.734-.831 3.508-1.004 5.214-.115 1.45 1.037 2.537 2.624 2.454 4.546l-.039 4.21 3.841-1.053c1.662-.623 3.531 0 4.778 1.246 1.246 1.247 1.869 3.116 1.246 4.778l-1.131 4.126 4.594-.027c1.774-.172 3.426.918 4.311 2.451.886 1.533 1.004 3.509-.032 4.959l-2.175 3.717 3.78.975c1.869.416 3.116 1.87 3.739 3.531.415 1.662-.208 3.532-1.454 4.778l-2.982 2.917 3.948 2.231c1.706.889 2.537 2.624 2.71 4.398-.029 1.721-1.12 3.372-2.653 4.257l-3.823 2.152 2.8 2.739a5.41 5.41 0 0 1 1.454 4.985c-.623 1.662-1.87 3.116-3.739 3.531l-3.776.975 2.224 3.756a5.433 5.433 0 0 1 .115 5.214c-1.037 1.451-2.624 2.537-4.545 2.454l-4.419-.04 1.054 3.843c.623 1.661 0 3.531-1.246 4.777-1.247 1.246-3.116 1.869-4.778 1.246l-3.918-1.074.026 4.538c.173 1.774-.918 3.425-2.451 4.311-1.533.885-3.509 1.003-4.959-.033l-3.897-2.28-1.002 3.885c-.416 1.87-1.87 3.116-3.531 3.739-1.87.416-3.531-.208-4.985-1.454l-2.633-2.752-2.101 3.719c-.889 1.705-2.624 2.537-4.398 2.709-1.922-.083-3.372-1.119-4.459-2.707l-2.098-3.828-2.798 2.859c-1.454 1.246-3.116 1.87-4.985 1.454-1.662-.623-3.116-1.869-3.531-3.739l-.947-3.669-3.577 2.118c-1.734.831-3.509 1.003-5.214.114-1.451-1.036-2.537-2.623-2.454-4.545l.041-4.475-4.051 1.11c-1.661.623-3.531 0-4.777-1.246s-1.869-3.116-1.246-4.777l1.074-3.918-4.33.025c-1.775.173-3.426-.918-4.312-2.451-.885-1.533-1.003-3.509.033-4.959l2.253-3.85-4.065-1.049c-1.87-.415-3.116-1.869-3.739-3.531a5.408 5.408 0 0 1 1.454-4.985l2.789-2.729-3.549-2.005c-1.705-.889-2.536-2.624-2.709-4.398a5.435 5.435 0 0 1 2.707-4.459l3.795-2.136-3.033-2.967c-1.246-1.246-1.87-3.116-1.454-4.778.623-1.661 1.869-3.115 3.739-3.531l3.999-1.032-2.186-3.693c-.886-1.533-1.004-3.509-.169-5.013 1.036-1.45 2.624-2.537 4.545-2.454l4.268.039-1.11-4.048c-.623-1.662 0-3.531 1.246-4.778 1.246-1.246 3.116-1.869 4.777-1.246l4.125 1.131-.025-4.387c-.173-1.774.918-3.426 2.451-4.311 1.533-.885 3.509-1.004 4.959.033l3.67 2.147 1.022-3.96c.415-1.869 1.869-3.116 3.531-3.739 1.869-.415 3.531.208 4.985 1.454l2.86 2.924 2.081-3.683c.889-1.706 2.624-2.537 4.398-2.71 1.922.083 3.372 1.12 4.459 2.707l2.007 3.566z" fill="#FFD43B"/><path d="M661.947 301.217l2.682-2.804c1.454-1.246 3.116-1.869 4.985-1.454 1.662.624 3.116 1.87 3.531 3.739l1.033 4.005 3.698-2.246c1.735-.831 3.509-1.004 5.214-.115 1.451 1.037 2.537 2.624 2.454 4.546l-.038 4.211 3.841-1.054c1.661-.623 3.531 0 4.777 1.247 1.246 1.246 1.869 3.115 1.246 4.777l-1.131 4.126 4.595-.027c1.774-.172 3.425.918 4.311 2.452.885 1.533 1.003 3.508-.033 4.959l-2.175 3.716 3.78.976c1.87.415 3.116 1.869 3.739 3.531.416 1.661-.208 3.531-1.454 4.777l-2.982 2.917 3.949 2.232c1.705.889 2.537 2.623 2.709 4.398-.029 1.72-1.119 3.371-2.653 4.257l-3.823 2.151 2.8 2.739a5.408 5.408 0 0 1 1.454 4.985c-.623 1.662-1.869 3.116-3.739 3.531l-3.776.975 2.225 3.756a5.435 5.435 0 0 1 .114 5.215c-1.036 1.45-2.623 2.537-4.545 2.454l-4.419-.041 1.054 3.843c.623 1.662 0 3.531-1.246 4.777-1.246 1.247-3.116 1.87-4.777 1.247l-3.919-1.075.026 4.538c.173 1.774-.918 3.426-2.451 4.311-1.533.885-3.509 1.004-4.959-.033l-3.896-2.28-1.003 3.886c-.415 1.869-1.869 3.115-3.531 3.738-1.869.416-3.531-.207-4.985-1.454l-2.633-2.752-2.101 3.719c-.889 1.706-2.624 2.537-4.398 2.709-1.922-.083-3.372-1.119-4.459-2.706l-2.098-3.829-2.798 2.859c-1.454 1.247-3.115 1.87-4.985 1.454-1.661-.623-3.115-1.869-3.531-3.738l-.947-3.67-3.576 2.118c-1.735.831-3.509 1.004-5.215.114-1.45-1.036-2.537-2.623-2.454-4.545l.041-4.475-4.05 1.111c-1.662.623-3.531 0-4.778-1.247-1.246-1.246-1.869-3.115-1.246-4.777l1.074-3.918-4.33.025c-1.774.173-3.426-.918-4.311-2.451-.885-1.533-1.004-3.509.033-4.959l2.252-3.85-4.065-1.049c-1.869-.415-3.116-1.869-3.739-3.531a5.41 5.41 0 0 1 1.454-4.985l2.789-2.729-3.548-2.005c-1.706-.889-2.537-2.624-2.71-4.398a5.434 5.434 0 0 1 2.707-4.458l3.796-2.137-3.034-2.967c-1.246-1.246-1.869-3.116-1.454-4.777.623-1.662 1.87-3.116 3.739-3.531l4-1.033-2.187-3.693c-.885-1.533-1.004-3.509-.169-5.013 1.037-1.45 2.624-2.537 4.546-2.454l4.267.04-1.11-4.049c-.623-1.662 0-3.531 1.246-4.777 1.247-1.247 3.116-1.87 4.778-1.247l4.125 1.131-.026-4.387c-.172-1.774.918-3.426 2.451-4.311 1.533-.885 3.509-1.004 4.959.033l3.67 2.147 1.022-3.96c.416-1.869 1.87-3.115 3.531-3.739 1.87-.415 3.531.208 4.985 1.454l2.86 2.924 2.081-3.683c.889-1.706 2.624-2.537 4.398-2.71 1.922.083 3.372 1.12 4.459 2.707l2.007 3.566z" fill="url(#paint0_linear_1161_3876)"/><path d="M624.758 350.083c0-16.86 13.632-30.611 30.611-30.611 16.86 0 30.611 13.751 30.611 30.611 0 16.98-13.751 30.611-30.611 30.611a30.517 30.517 0 0 1-30.611-30.611zm30.611 24.872c13.632 0 24.872-11.121 24.872-24.872 0-13.631-11.24-24.871-24.872-24.871-13.751 0-24.871 11.24-24.871 24.871 0 13.751 11.12 24.872 24.871 24.872zm18.415-24.872l-2.033-6.098c-.598-1.913.359-3.946 2.272-4.783l6.218-2.511 1.913 17.219-5.62-1.316c-1.315-.358-2.392-1.315-2.75-2.511zm-41.014-5.5l-2.272-4.066 1.913-5.739 9.566-9.566 12.436-3.826 2.391 4.424c.837 1.435.717 3.109-.359 4.424l-1.913 2.152a3.798 3.798 0 0 0 0 4.903l1.555 1.913c.717.837.717 1.913.239 2.75-.598.837-1.674 1.316-2.631.957l-2.87-.957c-.837-.239-1.674-.239-2.511.239l-.717.359c-1.076.479-1.555 1.794-1.196 2.87.239.598.598 1.076 1.076 1.315l4.185 2.392c1.077.717 2.392.956 3.707.956h5.261c1.435 0 2.99.718 4.066 1.794l.359.359c1.076 1.076 1.793 2.63 1.793 4.065v1.076c0 2.033-1.195 3.946-2.989 4.903l-1.076.717a7.671 7.671 0 0 0-3.587 4.544l-.12.598a5.93 5.93 0 0 1-3.946 3.946c-1.794.478-3.707-.837-3.707-2.75v-3.707a3.447 3.447 0 0 0-1.913-3.109c-1.076-.478-1.913-1.674-1.913-2.989v-4.783c0-2.153-1.316-4.066-3.468-4.664l-6.816-1.913a7.67 7.67 0 0 1-4.543-3.587z" fill="#FAB005"/></g><defs><linearGradient id="paint0_linear_1161_3876" x1="692.961" y1="386.022" x2="619.072" y2="316.356" gradientUnits="userSpaceOnUse"><stop stop-color="#FFD43B"/><stop offset=".255" stop-color="#fff"/><stop offset="1" stop-color="#FFD43B" stop-opacity="0"/></linearGradient><clipPath id="clip0_1161_3876"><path fill="#fff" d="M0 0h1200v630H0z"/></clipPath></defs></svg>